<svg width="2698" height="380" viewBox="0 0 2698 380" fill="none" xmlns="http://www.w3.org/2000/svg">
<g clip-path="url(#clip0_8536_719)">
<mask id="mask0_8536_719" style="mask-type:luminance" maskUnits="userSpaceOnUse" x="0" y="0" width="1494" height="380">
<path d="M1494 0H0V380H1494V0Z" fill="white"/>
</mask>
<g mask="url(#mask0_8536_719)">
<path d="M571.081 8.93481L442.188 345.694H511.456L538.205 275.36H675.054L701.676 345.694H770.418L642.003 8.93481H571.081ZM561.676 213.555L606.773 95.054L651.615 213.555H561.676Z" fill="black"/>
<path d="M1371.41 104.856C1347.17 104.856 1323.48 112.042 1303.33 125.506C1283.18 138.969 1267.48 158.106 1258.21 180.494C1248.93 202.883 1246.51 227.519 1251.23 251.287C1255.96 275.055 1267.63 296.888 1284.77 314.023C1301.9 331.159 1323.73 342.829 1347.5 347.557C1371.27 352.284 1395.91 349.858 1418.3 340.584C1440.68 331.31 1459.82 315.606 1473.28 295.456C1486.75 275.307 1493.93 251.617 1493.93 227.384C1493.93 194.887 1481.02 163.722 1458.05 140.744C1435.07 117.765 1403.9 104.856 1371.41 104.856ZM1371.41 287.088C1359.6 287.088 1348.06 283.587 1338.25 277.029C1328.43 270.47 1320.78 261.148 1316.26 250.241C1311.74 239.335 1310.56 227.333 1312.87 215.755C1315.17 204.177 1320.85 193.541 1329.2 185.194C1337.55 176.846 1348.18 171.161 1359.76 168.858C1371.34 166.555 1383.34 167.737 1394.25 172.255C1405.15 176.772 1414.48 184.423 1421.04 194.238C1427.59 204.054 1431.09 215.594 1431.09 227.4C1431.11 235.241 1429.57 243.009 1426.58 250.256C1423.58 257.503 1419.19 264.088 1413.64 269.633C1408.1 275.179 1401.51 279.575 1394.26 282.57C1387.02 285.565 1379.25 287.1 1371.41 287.088Z" fill="black"/>
<path d="M852.957 258.843L797.008 109.105H730.939L820.989 345.694H886.533L974.975 109.105H908.906L852.957 258.843Z" fill="black"/>
<path d="M1182.78 46.234H1119.91V109.105H1083.15V165.595H1119.91V266.306C1119.91 323.321 1151.35 347.826 1195.57 347.826C1210.57 348.043 1225.45 345.138 1239.27 339.297V280.691C1231.75 283.463 1223.82 284.932 1215.81 285.035C1196.72 285.035 1182.78 277.572 1182.78 252V165.595H1239.27V109.105H1182.78V46.234Z" fill="black"/>
<path d="M1026.66 92.0625C1051.97 92.0625 1072.49 71.5445 1072.49 46.2341C1072.49 20.9238 1051.97 0.405762 1026.66 0.405762C1001.35 0.405762 980.83 20.9238 980.83 46.2341C980.83 71.5445 1001.35 92.0625 1026.66 92.0625Z" fill="black"/>
<path d="M1058.1 109.105H995.232V345.694H1058.1V109.105Z" fill="black"/>
<path d="M122.965 379.27C190.652 379.27 245.524 324.398 245.524 256.711C245.524 189.023 190.652 134.152 122.965 134.152C55.2778 134.152 0.40625 189.023 0.40625 256.711C0.40625 324.398 55.2778 379.27 122.965 379.27Z" fill="#04E061"/>
<path d="M335.574 363.803C376.475 363.803 409.631 330.646 409.631 289.745C409.631 248.844 376.475 215.688 335.574 215.688C294.673 215.688 261.516 248.844 261.516 289.745C261.516 330.646 294.673 363.803 335.574 363.803Z" fill="#FF4053"/>
<path d="M146.404 118.175C171.715 118.175 192.233 97.6569 192.233 72.3466C192.233 47.0363 171.715 26.5182 146.404 26.5182C121.094 26.5182 100.576 47.0363 100.576 72.3466C100.576 97.6569 121.094 118.175 146.404 118.175Z" fill="#965EEB"/>
<path d="M306.803 199.696C361.835 199.696 406.448 155.083 406.448 100.051C406.448 45.0183 361.835 0.405762 306.803 0.405762C251.77 0.405762 207.158 45.0183 207.158 100.051C207.158 155.083 251.77 199.696 306.803 199.696Z" fill="#00AAFF"/>
</g>
</g>
<path d="M2047.01 104.973C2022.77 104.973 1999.08 112.159 1978.93 125.623C1958.78 139.086 1943.08 158.223 1933.81 180.611C1924.53 203 1922.11 227.636 1926.83 251.404C1931.56 275.172 1943.23 297.005 1960.37 314.14C1977.5 331.276 1999.33 342.946 2023.1 347.674C2046.87 352.401 2071.51 349.975 2093.9 340.701C2116.28 331.427 2135.42 315.723 2148.88 295.573C2162.35 275.424 2169.53 251.734 2169.53 227.501C2169.53 195.004 2156.62 163.839 2133.65 140.861C2110.67 117.882 2079.5 104.973 2047.01 104.973ZM2047.01 287.205C2035.2 287.205 2023.66 283.704 2013.85 277.146C2004.03 270.587 1996.38 261.265 1991.86 250.358C1987.34 239.452 1986.16 227.45 1988.47 215.872C1990.77 204.294 1996.45 193.658 2004.8 185.311C2013.15 176.963 2023.78 171.278 2035.36 168.975C2046.94 166.672 2058.94 167.854 2069.85 172.372C2080.75 176.889 2090.08 184.54 2096.64 194.355C2103.19 204.171 2106.69 215.711 2106.69 227.517C2106.71 235.358 2105.17 243.126 2102.18 250.373C2099.18 257.62 2094.79 264.205 2089.24 269.75C2083.7 275.296 2077.11 279.692 2069.86 282.687C2062.62 285.682 2054.85 287.217 2047.01 287.205Z" fill="black"/>
<path d="M2584.15 344.5C2549.65 344.5 2522.2 334.9 2501.8 315.7C2481.7 296.5 2471.05 268.6 2469.85 232C2469.85 229.6 2469.85 226.45 2469.85 222.55C2469.85 218.35 2469.85 215.05 2469.85 212.65C2471.05 189.55 2476.3 169.75 2485.6 153.25C2494.9 136.45 2507.95 123.7 2524.75 115C2541.55 106 2561.2 101.5 2583.7 101.5C2608.9 101.5 2629.9 106.75 2646.7 117.25C2663.8 127.45 2676.55 141.55 2684.95 159.55C2693.65 177.25 2698 197.65 2698 220.75V231.1C2698 234.1 2696.8 236.65 2694.4 238.75C2692.3 240.85 2689.75 241.9 2686.75 241.9H2539.6C2539.6 242.2 2539.6 242.8 2539.6 243.7C2539.6 244.3 2539.6 244.9 2539.6 245.5C2539.9 255.1 2541.7 263.95 2545 272.05C2548.6 279.85 2553.55 286.15 2559.85 290.95C2566.45 295.75 2574.25 298.15 2583.25 298.15C2590.75 298.15 2596.9 297.1 2601.7 295C2606.5 292.9 2610.4 290.35 2613.4 287.35C2616.7 284.35 2619.1 281.8 2620.6 279.7C2623.3 276.7 2625.4 274.9 2626.9 274.3C2628.7 273.4 2631.4 272.95 2635 272.95H2681.8C2684.8 272.95 2687.2 273.85 2689 275.65C2691.1 277.15 2692 279.4 2691.7 282.4C2691.4 287.2 2688.85 293.2 2684.05 300.4C2679.55 307.3 2672.8 314.2 2663.8 321.1C2654.8 327.7 2643.55 333.25 2630.05 337.75C2616.85 342.25 2601.55 344.5 2584.15 344.5ZM2539.6 200.95H2627.8V200.05C2627.8 189.25 2626 179.95 2622.4 172.15C2619.1 164.05 2614.15 157.75 2607.55 153.25C2600.95 148.75 2593 146.5 2583.7 146.5C2574.4 146.5 2566.45 148.75 2559.85 153.25C2553.25 157.75 2548.15 164.05 2544.55 172.15C2541.25 179.95 2539.6 189.25 2539.6 200.05V200.95Z" fill="black"/>
<path d="M2216.3 350.027C2213.3 350.027 2210.75 348.977 2208.65 346.877C2206.55 344.777 2205.5 342.077 2205.5 338.777V127.277C2205.5 123.977 2206.55 121.277 2208.65 119.177C2210.75 117.077 2213.3 116.027 2216.3 116.027H2260.4C2263.7 116.027 2266.4 117.077 2268.5 119.177C2270.6 121.277 2271.65 123.977 2271.65 127.277V144.827C2279.45 135.227 2289.5 127.277 2301.8 120.977C2314.1 114.677 2329.1 111.527 2346.8 111.527C2364.5 111.527 2379.95 115.577 2393.15 123.677C2406.65 131.477 2417.15 143.027 2424.65 158.327C2432.45 173.327 2436.35 191.627 2436.35 213.227V338.777C2436.35 342.077 2435.15 344.777 2432.75 346.877C2430.65 348.977 2428.1 350.027 2425.1 350.027H2377.4C2374.1 350.027 2371.4 348.977 2369.3 346.877C2367.2 344.777 2366.15 342.077 2366.15 338.777V215.927C2366.15 200.027 2362.25 187.727 2354.45 179.027C2346.95 170.027 2335.85 165.527 2321.15 165.527C2307.05 165.527 2295.8 170.027 2287.4 179.027C2279 187.727 2274.8 200.027 2274.8 215.927V338.777C2274.8 342.077 2273.75 344.777 2271.65 346.877C2269.55 348.977 2267 350.027 2264 350.027H2216.3Z" fill="black"/>
<path d="M1839.88 344.5C1836.58 344.5 1833.88 343.45 1831.78 341.35C1829.68 339.25 1828.63 336.55 1828.63 333.25V36.25C1828.63 32.95 1829.68 30.25 1831.78 28.15C1833.88 26.05 1836.58 25 1839.88 25H1884.88C1887.88 25 1890.43 26.05 1892.53 28.15C1894.63 30.25 1895.68 32.95 1895.68 36.25V333.25C1895.68 336.55 1894.63 339.25 1892.53 341.35C1890.43 343.45 1887.88 344.5 1884.88 344.5H1839.88Z" fill="black"/>
<path d="M1678.26 349C1656.36 349 1637.01 344.95 1620.21 336.85C1603.71 328.75 1590.66 317.05 1581.06 301.75C1571.46 286.15 1566.21 267.55 1565.31 245.95C1565.01 241.15 1564.86 235.15 1564.86 227.95C1564.86 220.45 1565.01 214.3 1565.31 209.5C1566.21 187.6 1571.31 169 1580.61 153.7C1590.21 138.1 1603.41 126.25 1620.21 118.15C1637.01 110.05 1656.36 106 1678.26 106C1698.36 106 1715.46 108.85 1729.56 114.55C1743.66 119.95 1755.21 126.85 1764.21 135.25C1773.21 143.65 1779.81 152.5 1784.01 161.8C1788.51 170.8 1790.91 178.75 1791.21 185.65C1791.51 188.65 1790.46 191.35 1788.06 193.75C1785.96 195.85 1783.41 196.9 1780.41 196.9H1732.26C1729.26 196.9 1726.86 196.15 1725.06 194.65C1723.56 192.85 1722.06 190.45 1720.56 187.45C1716.36 176.95 1710.96 169.45 1704.36 164.95C1697.76 160.45 1689.51 158.2 1679.61 158.2C1666.11 158.2 1655.46 162.55 1647.66 171.25C1639.86 179.95 1635.66 193.45 1635.06 211.75C1634.76 223.45 1634.76 234.1 1635.06 243.7C1635.96 262.3 1640.16 275.8 1647.66 284.2C1655.46 292.6 1666.11 296.8 1679.61 296.8C1690.11 296.8 1698.51 294.55 1704.81 290.05C1711.11 285.55 1716.36 278.05 1720.56 267.55C1721.76 264.55 1723.26 262.3 1725.06 260.8C1726.86 259 1729.26 258.1 1732.26 258.1H1780.41C1783.41 258.1 1785.96 259.3 1788.06 261.7C1790.46 263.8 1791.51 266.35 1791.21 269.35C1790.91 274.45 1789.41 280.45 1786.71 287.35C1784.31 294.25 1780.26 301.3 1774.56 308.5C1769.16 315.7 1762.11 322.45 1753.41 328.75C1744.71 334.75 1734.06 339.7 1721.46 343.6C1709.16 347.2 1694.76 349 1678.26 349Z" fill="black"/>
<defs>
<clipPath id="clip0_8536_719">
<rect width="1494" height="380" fill="white"/>
</clipPath>
</defs>
</svg>
